<svg width="16" height="16" viewBox="0 0 16 16" fill="none" xmlns="http://www.w3.org/2000/svg">
<path d="M5.47082 3.52995C5.32992 3.38905 5.25076 3.19796 5.25076 2.9987C5.25076 2.79944 5.32992 2.60835 5.47082 2.46745C5.61171 2.32655 5.80281 2.2474 6.00207 2.2474C6.20132 2.2474 6.39242 2.32655 6.53332 2.46745L11.5333 7.46745C11.6032 7.53713 11.6587 7.61992 11.6966 7.71109C11.7344 7.80225 11.7539 7.89999 11.7539 7.9987C11.7539 8.09741 11.7344 8.19515 11.6966 8.28631C11.6587 8.37748 11.6032 8.46027 11.5333 8.52995L6.53332 13.5299C6.39242 13.6708 6.20132 13.75 6.00207 13.75C5.80281 13.75 5.61171 13.6708 5.47082 13.5299C5.32992 13.3891 5.25076 13.198 5.25076 12.9987C5.25076 12.7994 5.32992 12.6083 5.47082 12.4674L9.93894 7.99932L5.47082 3.52995Z" fill="#141414"/>
<path d="M5.47082 3.52995C5.32992 3.38905 5.25076 3.19796 5.25076 2.9987C5.25076 2.79944 5.32992 2.60835 5.47082 2.46745C5.61171 2.32655 5.80281 2.2474 6.00207 2.2474C6.20132 2.2474 6.39242 2.32655 6.53332 2.46745L11.5333 7.46745C11.6032 7.53713 11.6587 7.61992 11.6966 7.71109C11.7344 7.80225 11.7539 7.89999 11.7539 7.9987C11.7539 8.09741 11.7344 8.19515 11.6966 8.28631C11.6587 8.37748 11.6032 8.46027 11.5333 8.52995L6.53332 13.5299C6.39242 13.6708 6.20132 13.75 6.00207 13.75C5.80281 13.75 5.61171 13.6708 5.47082 13.5299C5.32992 13.3891 5.25076 13.198 5.25076 12.9987C5.25076 12.7994 5.32992 12.6083 5.47082 12.4674L9.93894 7.99932L5.47082 3.52995Z" fill="#1362DF"/>
</svg>
