<svg width="24" height="24" viewBox="0 0 24 24" fill="none" xmlns="http://www.w3.org/2000/svg">
<g clip-path="url(#clip0_4592_12846)">
<path d="M13.2543 6.06572L14.2855 5.03447C14.6914 4.62849 15.1733 4.30644 15.7036 4.08672C16.234 3.867 16.8024 3.75391 17.3765 3.75391C17.9505 3.75391 18.519 3.867 19.0493 4.08672C19.5797 4.30644 20.0615 4.62849 20.4674 5.03447C20.8734 5.44034 21.1954 5.92221 21.4152 6.45256C21.6349 6.98291 21.748 7.55135 21.748 8.12541C21.748 8.69947 21.6349 9.26791 21.4152 9.79826C21.1954 10.3286 20.8734 10.8105 20.4674 11.2163L18.1818 13.502L17.2124 14.4713C16.8061 14.8778 16.3236 15.2 15.7926 15.4198C15.2615 15.6395 14.6924 15.7524 14.1177 15.752C13.543 15.7516 12.974 15.6378 12.4433 15.4173C11.9126 15.1967 11.4306 14.8737 11.0249 14.4667C10.6049 14.0469 10.2752 13.5457 10.056 12.9938C9.83671 12.442 9.73256 11.8511 9.74991 11.2576" stroke="#1362DF" stroke-width="1.25" stroke-linecap="round" stroke-linejoin="round"/>
<path d="M10.7457 17.9362L9.71448 18.9674C9.30814 19.3738 8.82565 19.6961 8.29463 19.9159C7.7636 20.1356 7.19446 20.2485 6.61976 20.2481C6.04506 20.2477 5.47609 20.1339 4.94539 19.9134C4.4147 19.6928 3.9327 19.3698 3.52698 18.9628C2.70947 18.1424 2.2509 17.0311 2.25195 15.873C2.25301 14.7148 2.7136 13.6044 3.5326 12.7856L6.7876 9.53057C7.19347 9.12458 7.67534 8.80253 8.20569 8.58281C8.73604 8.36309 9.30448 8.25 9.87854 8.25C10.4526 8.25 11.021 8.36309 11.5514 8.58281C12.0817 8.80253 12.5636 9.12458 12.9695 9.53057C13.3912 9.95034 13.7224 10.4521 13.9426 11.0048C14.1629 11.5576 14.2675 12.1496 14.2501 12.7443" stroke="#1362DF" stroke-width="1.25" stroke-linecap="round" stroke-linejoin="round"/>
</g>
<defs>
<clipPath id="clip0_4592_12846">
<rect width="24" height="24" fill="white"/>
</clipPath>
</defs>
</svg>
