<svg width="24" height="24" viewBox="0 0 24 24" fill="none" xmlns="http://www.w3.org/2000/svg">
<path d="M19.8975 6.3525L16.1475 2.6025C16.0421 2.49698 15.8991 2.43763 15.75 2.4375H8.25C7.9019 2.4375 7.56806 2.57578 7.32192 2.82192C7.07578 3.06806 6.9375 3.4019 6.9375 3.75V5.4375H5.25C4.9019 5.4375 4.56806 5.57578 4.32192 5.82192C4.07578 6.06806 3.9375 6.4019 3.9375 6.75V20.25C3.9375 20.5981 4.07578 20.9319 4.32192 21.1781C4.56806 21.4242 4.9019 21.5625 5.25 21.5625H15.75C16.0981 21.5625 16.4319 21.4242 16.6781 21.1781C16.9242 20.9319 17.0625 20.5981 17.0625 20.25V18.5625H18.75C19.0981 18.5625 19.4319 18.4242 19.6781 18.1781C19.9242 17.9319 20.0625 17.5981 20.0625 17.25V6.75C20.0624 6.60087 20.003 6.45789 19.8975 6.3525ZM15.9375 20.25C15.9375 20.2997 15.9177 20.3474 15.8826 20.3826C15.8474 20.4177 15.7997 20.4375 15.75 20.4375H5.25C5.20027 20.4375 5.15258 20.4177 5.11742 20.3826C5.08225 20.3474 5.0625 20.2997 5.0625 20.25V6.75C5.0625 6.70027 5.08225 6.65258 5.11742 6.61742C5.15258 6.58225 5.20027 6.5625 5.25 6.5625H12.5166L15.9375 9.98344V20.25ZM18.9375 17.25C18.9375 17.2997 18.9177 17.3474 18.8826 17.3826C18.8474 17.4177 18.7997 17.4375 18.75 17.4375H17.0625V9.75C17.0624 9.60087 17.003 9.45789 16.8975 9.3525L13.1475 5.6025C13.0421 5.49698 12.8991 5.43763 12.75 5.4375H8.0625V3.75C8.0625 3.70027 8.08225 3.65258 8.11742 3.61742C8.15258 3.58225 8.20027 3.5625 8.25 3.5625H15.5166L18.9375 6.98344V17.25ZM13.3125 14.25C13.3125 14.3992 13.2532 14.5423 13.1477 14.6477C13.0423 14.7532 12.8992 14.8125 12.75 14.8125H8.25C8.10082 14.8125 7.95774 14.7532 7.85225 14.6477C7.74676 14.5423 7.6875 14.3992 7.6875 14.25C7.6875 14.1008 7.74676 13.9577 7.85225 13.8523C7.95774 13.7468 8.10082 13.6875 8.25 13.6875H12.75C12.8992 13.6875 13.0423 13.7468 13.1477 13.8523C13.2532 13.9577 13.3125 14.1008 13.3125 14.25ZM13.3125 17.25C13.3125 17.3992 13.2532 17.5423 13.1477 17.6477C13.0423 17.7532 12.8992 17.8125 12.75 17.8125H8.25C8.10082 17.8125 7.95774 17.7532 7.85225 17.6477C7.74676 17.5423 7.6875 17.3992 7.6875 17.25C7.6875 17.1008 7.74676 16.9577 7.85225 16.8523C7.95774 16.7468 8.10082 16.6875 8.25 16.6875H12.75C12.8992 16.6875 13.0423 16.7468 13.1477 16.8523C13.2532 16.9577 13.3125 17.1008 13.3125 17.25Z" fill="#1362DF"/>
</svg>
