<svg width="16" height="16" viewBox="0 0 16 16" fill="none" xmlns="http://www.w3.org/2000/svg">
<path d="M10.5292 12.4701C10.6701 12.6109 10.7492 12.802 10.7492 13.0013C10.7492 13.2006 10.6701 13.3917 10.5292 13.5326C10.3883 13.6734 10.1972 13.7526 9.99793 13.7526C9.79868 13.7526 9.60758 13.6734 9.46668 13.5326L4.46668 8.53255C4.39676 8.46287 4.34129 8.38008 4.30343 8.28891C4.26558 8.19775 4.24609 8.10001 4.24609 8.0013C4.24609 7.90259 4.26558 7.80485 4.30343 7.71369C4.34129 7.62252 4.39676 7.53973 4.46668 7.47005L9.46668 2.47005C9.60758 2.32915 9.79868 2.25 9.99793 2.25C10.1972 2.25 10.3883 2.32915 10.5292 2.47005C10.6701 2.61095 10.7492 2.80204 10.7492 3.0013C10.7492 3.20056 10.6701 3.39165 10.5292 3.53255L6.06106 8.00068L10.5292 12.4701Z" fill="#1362DF"/>
</svg>
