<svg width="24" height="24" viewBox="0 0 24 24" fill="none" xmlns="http://www.w3.org/2000/svg">
<path d="M15.9375 7.125C15.9375 6.34624 15.7066 5.58496 15.2739 4.93744C14.8413 4.28993 14.2263 3.78525 13.5068 3.48723C12.7873 3.18921 11.9956 3.11123 11.2318 3.26316C10.468 3.41509 9.76644 3.7901 9.21577 4.34077C8.6651 4.89144 8.29009 5.59303 8.13816 6.35683C7.98623 7.12063 8.06421 7.91233 8.36223 8.63182C8.66025 9.3513 9.16493 9.96626 9.81244 10.3989C10.46 10.8316 11.2212 11.0625 12 11.0625C13.0443 11.0625 14.0458 10.6477 14.7842 9.90924C15.5227 9.17081 15.9375 8.16929 15.9375 7.125ZM12 9.9375C11.4437 9.9375 10.9 9.77255 10.4375 9.46351C9.97495 9.15447 9.61446 8.71522 9.40159 8.2013C9.18872 7.68738 9.13302 7.12188 9.24154 6.57631C9.35006 6.03074 9.61793 5.5296 10.0113 5.13626C10.4046 4.74293 10.9057 4.47506 11.4513 4.36654C11.9969 4.25802 12.5624 4.31372 13.0763 4.52659C13.5902 4.73946 14.0295 5.09995 14.3385 5.56246C14.6476 6.02497 14.8125 6.56874 14.8125 7.125C14.8125 7.87092 14.5162 8.58629 13.9887 9.11374C13.4613 9.64119 12.7459 9.9375 12 9.9375ZM17.625 12.1875C16.8462 12.1875 16.085 12.4184 15.4374 12.8511C14.7899 13.2837 14.2852 13.8987 13.9872 14.6182C13.6892 15.3377 13.6112 16.1294 13.7632 16.8932C13.9151 17.657 14.2901 18.3586 14.8408 18.9092C15.3914 19.4599 16.093 19.8349 16.8568 19.9868C17.6206 20.1388 18.4123 20.0608 19.1318 19.7628C19.8513 19.4648 20.4663 18.9601 20.8989 18.3126C21.3316 17.665 21.5625 16.9038 21.5625 16.125C21.5625 15.0807 21.1477 14.0792 20.4092 13.3408C19.6708 12.6023 18.6693 12.1875 17.625 12.1875ZM17.625 18.9375C17.0687 18.9375 16.525 18.7726 16.0625 18.4635C15.5999 18.1545 15.2395 17.7152 15.0266 17.2013C14.8137 16.6874 14.758 16.1219 14.8665 15.5763C14.9751 15.0307 15.2429 14.5296 15.6363 14.1363C16.0296 13.7429 16.5307 13.4751 17.0763 13.3665C17.6219 13.258 18.1874 13.3137 18.7013 13.5266C19.2152 13.7395 19.6545 14.0999 19.9635 14.5625C20.2726 15.025 20.4375 15.5687 20.4375 16.125C20.4375 16.8709 20.1412 17.5863 19.6137 18.1137C19.0863 18.6412 18.3709 18.9375 17.625 18.9375ZM6.375 12.1875C5.59624 12.1875 4.83496 12.4184 4.18744 12.8511C3.53993 13.2837 3.03525 13.8987 2.73723 14.6182C2.43921 15.3377 2.36123 16.1294 2.51316 16.8932C2.66509 17.657 3.0401 18.3586 3.59077 18.9092C4.14144 19.4599 4.84303 19.8349 5.60683 19.9868C6.37063 20.1388 7.16233 20.0608 7.88182 19.7628C8.6013 19.4648 9.21625 18.9601 9.64891 18.3126C10.0816 17.665 10.3125 16.9038 10.3125 16.125C10.3125 15.0807 9.89766 14.0792 9.15923 13.3408C8.42081 12.6023 7.41929 12.1875 6.375 12.1875ZM6.375 18.9375C5.81874 18.9375 5.27497 18.7726 4.81246 18.4635C4.34995 18.1545 3.98946 17.7152 3.77659 17.2013C3.56372 16.6874 3.50802 16.1219 3.61654 15.5763C3.72506 15.0307 3.99293 14.5296 4.38626 14.1363C4.7796 13.7429 5.28074 13.4751 5.82631 13.3665C6.37188 13.258 6.93738 13.3137 7.4513 13.5266C7.96522 13.7395 8.40447 14.0999 8.71351 14.5625C9.02255 15.025 9.1875 15.5687 9.1875 16.125C9.1875 16.8709 8.89119 17.5863 8.36374 18.1137C7.83629 18.6412 7.12092 18.9375 6.375 18.9375Z" fill="#1362DF"/>
</svg>
